<mxfile host="app.diagrams.net" modified="2021-12-01T02:49:11.462Z" agent="5.0 (Windows NT 10.0; Win64; x64) AppleWebKit/537.36 (KHTML, like Gecko) Chrome/96.0.4664.45 Safari/537.36" etag="yUsc7n4zgZZ6UmXvPdGC" version="15.8.8" type="github">
  <diagram id="nAZcz1AZxyblUzO_elrS" name="Page-1">
    <mxGraphModel dx="2253" dy="673" grid="1" gridSize="10" guides="1" tooltips="1" connect="1" arrows="1" fold="1" page="1" pageScale="1" pageWidth="827" pageHeight="1169" math="0" shadow="0">
      <root>
        <mxCell id="0" />
        <mxCell id="1" parent="0" />
        <mxCell id="gH-__NXqZxBPmU6lRZSi-30" value="" style="rounded=0;whiteSpace=wrap;html=1;fontSize=10;labelBackgroundColor=none;" vertex="1" parent="1">
          <mxGeometry x="-53" y="790" width="280" height="420" as="geometry" />
        </mxCell>
        <mxCell id="7s5OwbQyg9fR4EaiZGAf-42" value="" style="rounded=0;whiteSpace=wrap;html=1;fontSize=10;" parent="1" vertex="1">
          <mxGeometry x="370" y="340" width="210" height="150" as="geometry" />
        </mxCell>
        <mxCell id="7s5OwbQyg9fR4EaiZGAf-1" value="" style="shape=actor;whiteSpace=wrap;html=1;" parent="1" vertex="1">
          <mxGeometry x="100" y="160" width="60" height="80" as="geometry" />
        </mxCell>
        <mxCell id="7s5OwbQyg9fR4EaiZGAf-2" value="User" style="rounded=0;whiteSpace=wrap;html=1;" parent="1" vertex="1">
          <mxGeometry x="100" y="250" width="60" height="30" as="geometry" />
        </mxCell>
        <mxCell id="7s5OwbQyg9fR4EaiZGAf-3" value="" style="endArrow=classic;html=1;rounded=0;" parent="1" edge="1">
          <mxGeometry relative="1" as="geometry">
            <mxPoint x="170" y="210" as="sourcePoint" />
            <mxPoint x="400" y="210" as="targetPoint" />
          </mxGeometry>
        </mxCell>
        <mxCell id="7s5OwbQyg9fR4EaiZGAf-4" value="Access to &#39;Example&#39;" style="edgeLabel;resizable=0;html=1;align=center;verticalAlign=middle;" parent="7s5OwbQyg9fR4EaiZGAf-3" connectable="0" vertex="1">
          <mxGeometry relative="1" as="geometry" />
        </mxCell>
        <mxCell id="7s5OwbQyg9fR4EaiZGAf-6" value="" style="strokeWidth=2;html=1;shape=mxgraph.flowchart.multi-document;whiteSpace=wrap;" parent="1" vertex="1">
          <mxGeometry x="420" y="180" width="88" height="60" as="geometry" />
        </mxCell>
        <mxCell id="7s5OwbQyg9fR4EaiZGAf-7" value="Example&lt;br&gt;(client)" style="rounded=0;whiteSpace=wrap;html=1;" parent="1" vertex="1">
          <mxGeometry x="420" y="250" width="90" height="30" as="geometry" />
        </mxCell>
        <mxCell id="7s5OwbQyg9fR4EaiZGAf-8" value="main.jsp" style="rounded=1;whiteSpace=wrap;html=1;" parent="1" vertex="1">
          <mxGeometry x="764" y="194" width="120" height="30" as="geometry" />
        </mxCell>
        <mxCell id="7s5OwbQyg9fR4EaiZGAf-9" value="login.jsp" style="rounded=1;whiteSpace=wrap;html=1;" parent="1" vertex="1">
          <mxGeometry x="766.5" y="355" width="120" height="30" as="geometry" />
        </mxCell>
        <mxCell id="7s5OwbQyg9fR4EaiZGAf-10" value="redirect.jsp" style="rounded=1;whiteSpace=wrap;html=1;" parent="1" vertex="1">
          <mxGeometry x="770" y="562" width="120" height="30" as="geometry" />
        </mxCell>
        <mxCell id="7s5OwbQyg9fR4EaiZGAf-11" value="refresh.jsp" style="rounded=1;whiteSpace=wrap;html=1;" parent="1" vertex="1">
          <mxGeometry x="360" y="509.5" width="120" height="30" as="geometry" />
        </mxCell>
        <mxCell id="7s5OwbQyg9fR4EaiZGAf-12" value="" style="endArrow=classic;html=1;rounded=0;" parent="1" edge="1">
          <mxGeometry relative="1" as="geometry">
            <mxPoint x="520" y="208.29" as="sourcePoint" />
            <mxPoint x="750" y="208.29" as="targetPoint" />
          </mxGeometry>
        </mxCell>
        <mxCell id="7s5OwbQyg9fR4EaiZGAf-13" value="provides this view page" style="edgeLabel;resizable=0;html=1;align=center;verticalAlign=middle;" parent="7s5OwbQyg9fR4EaiZGAf-12" connectable="0" vertex="1">
          <mxGeometry relative="1" as="geometry" />
        </mxCell>
        <mxCell id="7s5OwbQyg9fR4EaiZGAf-14" value="" style="endArrow=classic;html=1;rounded=0;" parent="1" edge="1">
          <mxGeometry relative="1" as="geometry">
            <mxPoint x="899" y="204.57999999999996" as="sourcePoint" />
            <mxPoint x="1120" y="180" as="targetPoint" />
            <Array as="points">
              <mxPoint x="999" y="205" />
            </Array>
          </mxGeometry>
        </mxCell>
        <mxCell id="7s5OwbQyg9fR4EaiZGAf-15" value="if (session.values != null)" style="edgeLabel;resizable=0;html=1;align=center;verticalAlign=middle;" parent="7s5OwbQyg9fR4EaiZGAf-14" connectable="0" vertex="1">
          <mxGeometry relative="1" as="geometry" />
        </mxCell>
        <mxCell id="7s5OwbQyg9fR4EaiZGAf-16" value="" style="endArrow=classic;html=1;rounded=0;" parent="1" edge="1">
          <mxGeometry relative="1" as="geometry">
            <mxPoint x="899" y="214.99999999999991" as="sourcePoint" />
            <mxPoint x="1120" y="240" as="targetPoint" />
            <Array as="points">
              <mxPoint x="999" y="215" />
            </Array>
          </mxGeometry>
        </mxCell>
        <mxCell id="7s5OwbQyg9fR4EaiZGAf-17" value="if (session.values == null)" style="edgeLabel;resizable=0;html=1;align=center;verticalAlign=middle;" parent="7s5OwbQyg9fR4EaiZGAf-16" connectable="0" vertex="1">
          <mxGeometry relative="1" as="geometry" />
        </mxCell>
        <mxCell id="7s5OwbQyg9fR4EaiZGAf-18" value="show users tokens" style="rounded=0;whiteSpace=wrap;html=1;" parent="1" vertex="1">
          <mxGeometry x="1130" y="164" width="180" height="30" as="geometry" />
        </mxCell>
        <mxCell id="7s5OwbQyg9fR4EaiZGAf-19" value="show values = null" style="rounded=0;whiteSpace=wrap;html=1;" parent="1" vertex="1">
          <mxGeometry x="1130" y="224" width="180" height="30" as="geometry" />
        </mxCell>
        <mxCell id="7s5OwbQyg9fR4EaiZGAf-20" value="" style="shape=image;verticalLabelPosition=bottom;labelBackgroundColor=#ffffff;verticalAlign=top;aspect=fixed;imageAspect=0;image=data:image/png,iVBORw0KGgoAAAANSUhEUgAAAMQAAAB/CAYAAACwq23dAAAAAXNSR0IArs4c6QAAAARnQU1BAACxjwv8YQUAAAAJcEhZcwAADsMAAA7DAcdvqGQAAB1qSURBVHhe7Z0PTFNZvse/85zUhGzNbDCzSdmdZ2cmwbgRx9jGJ3XIgL4B2Uh1BphZQLIgk6X4trBG0Dz+JA8wK3WftiRQJw87WS1GK9mhTFYhz8G3hpJx2sSh5hk6UWt2HjcZ02YnNktCM+a+c+69hVv+SOkfwZnzSa7tPT2ce+6553fO73fa8/UlngAGgyHwT9Irg8EgMINgMGQwg2AwZDCDYDBkJMkgwvB2l0DT7ZXOGSvmsRu27mEEpdNYCQ7VQ6Oph/OxlPBj4Stz9H3PP4+TxA3iaQjeT2pRe8EvJTDiwXvZgN77M9IZY7VIyCDCHBnVjEWo7vGSOYLBePFJwCC86C0io9pdFfSnrGjNlpLjJeiGvc2Akr0aMvWRIycf5Y02uOf7ENN+DHc3zebLLW6CecQfZZDhB8MwN5Ygl5ajyUVJoxnDD6JNNvS1E6aafGRL16pusy+4VtBjQ1PZXB6hPlFTchj+IRMMxblinfeWwHDKCV9I+jgmgnAaNai+QN6OdyCflFM/JFXkaRDuCy2oLswWys8urEbLBTeCT8WPF4e4r+fKSZ1LYBqX3RB1yZ7ZJl6YhWv7hXuKXJO2r82zUkduMcT71HST+tN2ldqM3pOJXHOuJpF6zL/mUunJJaEZYkNOHawD/Wjd+7qUEifTLpgOUpchHfpGK6w9FrSWbUP4Zi8Mv7XBF+kA06RRKkvQMjCFzMpOkq8ThzOn4GguR+M1saHCxJcs/6AFjqlMHD5Jyjp5GJlTDrRUNWJY6szBkSYUlXVh4meH0NZD8jQfguo+udZB4oNyYh5aTlVtHwK/PDybJ8NP8hSb4JaeXnCoESXtbij3NsBC8liMOsxc60C50QGpmBhQQvuRFQ17ydstFegk5RzWKIkxcHA27oeh24eNH7YJbXK8YD1c3Qbsb3SCW8IoOFKn2j4Ou9staMpOF9LCd20oLzbg4rQODWfIvZxpgG7aiZYPymH+Knqg8F9oQvXlJ8irt5C2I/kUY+itbYTjGynDooidVWN0Lh8D3TKh9oQbKvr8zrSiVO2Ho53U43Z0PVYN+k114gT4wd/t4HdYJqTzlREY7eKL9xj5wW+lBImpq1X8jh1z6eJ5FX/FL56LzPBjf3iHf7fuCv+Qn+Kv/IbU4zfk/ffSx5R/jPFde97la68+JNm/5Lve3sFX9ZP3cr5/KPztLtOXpESen7CQcn47SEqUcf8iX7anmO+5Q3NI9/yfX4qfScz8tZ3fta+Rvx71h8sjXO93g6RUkSfDjeRe9/Nn3fRaczz5axe/a8cuvusLMT3gNM620dRfGvl3yGdGp/ziYpvs+sMY/0TeJkK77RLaSsw9wZ/dQeqw/yz/5T+EBJFvB3kjSTc6IzVbDOlvZfVfiNRetK7y6n1P/pY8j7m+I5a18Hrz0u+cjeobC87jJEmrTImRntuEqzcs0L8qJUio3swi/wYwM03PgvCOe4FsPfZsoucRFNCduImRnlKog1647gK6g3ugXid9TEnToenGCKzFajKYueCYTodaEYD7tnvu8AQQ/hkZTa+4MEn+ZKOKXNtjx/kBLzjh+oQ3KtB/4yrq3lKQEyVUvyCvg1b03vIjKA1wipxWjF8zoUAlnsdHCO5bo8KModfQa82h1OlRowrDcdMd5SaGvjCjvm0Um08MwFIkuziJ826SNtn2ygwmPbL7vT2BkIK0x11XtBv4jg7aNOk95VU1SC64Hk2J54uShQaPB55uPcQ56Rlo8qCVt826DKjfIq/3SRuKKavKmjCIWaZD4O6RhzXiQO8pEiccs5NEH7jv6IdTeOghL2+ql2507iHc5EX92tKPJcjR1TDiz54ywHAk+jDfoDn84MiTURUeR8POAMlXjaIc6ksbiP8+DN9s51FAW94J/c8nYTtagvzsbOSXkXhmyA3/imKIxQgjRMvYkoEMMWGOdRuRTgcELkDMJoIL5nY7qTkwQQaNqI712C+0ibuvacH9tlzy0U8w9a2QU+Tl9dKbFEHsO8VXSIi1YRDTPtiPkCArJxdFlfVo+ZMTd6dVKCnKkzKIhCMj9VI8DUeNmkujQ+s1MqLRUW3BYUEBtae0TFT03MT4UD86T5RCq3iI0e4WlBeWzPndqjy0XhrHzQErWmvy8HrYDXu7ASW/motFng8KZNbYMNJdSnz0dpy9sdAiK/oWu1d6jKNuq5SJsTYMwnepkQRVZNq9cFN4QCOX+mFtb8ABzUYpByUDm3PIyyJTa/BaPRnBzXD9dDPp6mSM/9uCHBg+mouSMy7iC9Ex1wXf/dhMR6HKREFxE0yXRjBO3LoKlR/2q2Oy0Zm4MZu00NeSIHGAGNBAEwlYXTg/QkffeFFASeJq3Jsi8+I8ngYQfEReN6lkM6UWpe9lIT37MNpIGw23W+GKDB6vqJBJXty+F+t7In8wIL2TCHLCDJhq1oBBBDHpJcMp8S3zttBeIPGU+tGD0gklHVnZxK8fd+Jz2iEiPOUwNuxCSKXG5n/Ogo6Mdq5PP4dfvgrDjeH6rRCJSTYjXZOLUuIjOy5fj16poas6RuIa1Tio04Th5hLknhiO6vhQqrDxFel92IvesnyU9EV3fMWrGZCbcXwooc0hs+M9O5yeaMMNuZzo4xTQb98spchJR8Gx48QgHeg6J8UYm3ZDT9rE1++EO2qGDcN9pgjZhSa4Fk4oq8h6bCAxBkcMWF4t7tZ1MoylnpQbhPjTAg1xM6SEBaRj83YStnm60HjSARcN+EbsaKkpQuON9dTlnEVV2ICKTV6YKquJr06CwdvDsBnL0TGuRvVH+0hJKhyor4D6rgnlvzXDeYuWZYOhsgOuTdU4TH0hhRYVx3RQjHeg+FAHHEIeB0xSOfp/O0CCSBW0OhVmbrSjtrlXLOeWE70nSIxwj1zrw91QKjZjd84G+M/VwnDKgWGh3g50GBvhJEF83a/ouBw764mxUWO/OOKGlwsLS7mtOQHYa8vRRGIX920XnN0GFB11ADnHcThHNnjIUelRd0QN7pIJfXepSUhtwtlhKDLARsoX7qW5CvWXAtDWVkC3RFGxs4Jl12XJhO4g6Q+k7evPOEl/EO+7vJ84ulukLKlEWm1KkKWXXcVlwR382TtSwmJ8H+C//K9GvngPXZbbwb/zfi3fdXWCDwQ+55vJedVV2TrdPx7y1y2RvLv4dw938YP3o5cmZ+5f588eK+bfIX+74+13+ao/DPIP5UuJhID7It98+F1+F82z4x2+uI6U43sifSoy9dezfOOvI3mka8nzfP+En7jazNe+/45Qb6GcY+f5L+NZ+pv6nO/6jVjOLqvUjrRd/tTMV+3bJabvqxLbRbZ8Kl92nWVmgu95n9Tn/fP8pJQ3qk3ovfy6kT//hXxpU1o6XfAMl0qXI+WJZdl1QZ5F0qP6g9SmgSkhX6qXXV+i/0i2wWD86Flby64MxirDZohUQX+OXEO/R1kOugS88EtJxurADCJVPKVfrsX2c+71SiUU8m/WGasGMwgGQwaLIRgMGcwgGAwZzCAYDBnMIBgMGcwgGAwZzCAYDBnMIBgMGQkZhKBccSSi5JCN/BoTnF+vwm+Jn3IYPVWN/BxaDw0Mn6Z+d07SBcKYUNnKWGtCZVSVorqsA9cRUXI4jn0YREdZ9QIlh5Rzx4GmgUlklFElDisMOxPfkfC8YUJla4M4DYLDoMUOf3Yr+rsboM/RQpujR8PH/Wja6ofdMrgCGZbEEfdJa6F/rwDanVpkqaI35jMYsRKfQQQn4ftWAW2uFir5b3DWqaH9V6rkwGHeBsBnE5nuPMNooQJZOfkwDNBOTqBiXX1LCZOJ4lf57XQvlQsdhTSPGXSbvSiK5YK3r1pw6YQtppI3lxyRMonvvHC0idcQyjrlhH+5vd9RMKGyF1+oLD0PrdfGYT04X2slBJ+XdGTVhjiUFdzoOnoe66tPw9p8GCUaYlhhL2yH9sNwOQSd0SKIdTXkhOBsLkF5N5XPFEW+Osvo7rRMVFBhsh69IJsiMNCI+i80OE7/rjIPWUryWJIkUiZC6lxTj5sb9YLAWGfl6/APdKC8J1oi5tkwobIfoFCZyMyds3zxjnk73GJB2O20gy+bJx4mCJO93cWPRW9k42dcVKyrir/yN/F84a6xiChWOz8m3ymXNJGyyDVJWZflZc3wX5ro7raz/JdRomDLw4TKfmBCZeEHDjQa7ZjKaUXngpkjNrRbZsd2Agf3DS+w9SeYoVpNswJbbkyEFGQW8MJ1Z5nxKDsLm+WiW0kTKYtA4pa35XVW4PVMLXkVtZ3ihwmVrRZJMYiQpxdVVcSd0DShv1MfHVfETQB+Kkx2m/ib8wS2DM12CBJb3LMe0kKSJ1IWgXTWl6W3SYUJla0WCRsEN0R88lobwntNGDhdCrV8dEkGlbZ5wlpzx3gtlbpcKUkSKVtTMKGyZJGAQYTh+6Qaxe1jUB/pR39bXpJmhghKqKjsiGcyaQJVyhSIlKUGJlT2wgmV0dWMqp5JaNsGYKvKpDNhklFjdxGZARYR6wp7zMSVyYdpfGVdU5EskbKUw4TKXiyhsu9G0ftHF8Lp25DBDaL3XO+8Y3T2i7nlhcqWRhQm42CvzYehTxLrOteCqqN2BDR1qNi5QoWtZImUScUlEyZUFmF1hcriMoiQZxTDdLQJuuHos8G24PCu7Iu5pUijeq9X0VmpReByCwkE69E15EdGpRWfnY4veFcVWfDZuQbkpY3BfJQEl81WElbuQ+slGxqkFaT0QgsGzpQiw+9EF81ztAvOv2uFPHVbkz8XUjLzG1BKv+VvNqB2aJIEzyroT38GqzGT3Hu7eO/DM9h3wrbsvWeWt6J6kx+2/7AL/9mM4q0G9F/pRMX2AC6S8oX78Wegpuez6BWpNUJm5TlYa3cjdK0D9UdaYP9GC9PHx5H3HGbol+jaq/SewfjRk/AqE4PxQ4LNEKmC/j6LCZW9cDCDSBVMqOyFhBkEgyGDxRAMhgxmEAyGDGYQDIYMZhAMhgxmEAyGDGYQDIYMZhAMhoyEDCL8YBjmozL1ilNO+JL0U2JvN1WHkISnvjIL1zCNL7KPQfpMozHBteDjMFynaN3M+LOF5ln+SLWqw0oQfylMVUSEM0m1QjxjpIb4DYJzorGqBY4n+3D8jBWWY/uw/kYHyqvIA1yRDEsMbNHiAHkZ9NIdz9H47owinKaAAoNw35MSZ/HDN05eCrXYkVWN6pq5ozSH/spTBd0H0em611Lza1bGCwL9pnrlPOE//3dRoWFCLgrhv8JXUWWEvzxLoSE2BBWKWRUF6XqHrvDRehkP+SuHdvD7bVf48/vp66SULjE1yNeS+jT/9zzZDsKi/7/zGkOsI2lj8UxUrXjm/xfNSJQ4Zwg/uG/UyDy4D1nyATV9IxlzCd8LZ0lEic0aLXDPC7/cJXvsheueAnnbS6HZqwB3cyJqm2GIqnVABy0VZHouRMS0lhH7igizzRctWCqd8dyI0yCyUHHhKvqr6G5dkXDQB+dZK4bTdNj3L8uKkawY1S+1xNhG4X0gnlNCXjdcxJnSbgExGOJU3XPBK+tM/ntUykWHrGT8klTorLHFGPGJfTHWAklYZRJHxez8cnQMKVHXdxoFqfgp8xsa5KWFZZvlw/B6hoF8jTBLKbZqUEDMw+2NTCE+eG6EocrdNqfk95zgwjqY+jpRka+FNr8CnebjZJ6KQUeKseokbhAhJXRUHvFkE/RvTaK3bKE8YlJYtxnaQtLNvdLm86eTcF8DdDu3iXucldugzQaGPVTikvB4EhMcdafmZrGEeKtBkG2xFMUw+8Ul9sVYCyRuEEo1tFT9O78UrRH17zZxL29yUWBzlg4Y8WKSlv3Ag9HpTOiyIh00HVk60vmvuYXPw/d9s+7UcyfVYl+MlJEEl0nGOiodQ4JfbgKTKfAO0kk8kEnCZD/xxf13Pgen2oNtVMVOQr19D1TTxCDI55PeQSAnC5vZKipjBcRnEMFRQba+aWTht3Az4SfC6/qYd4B5YS/LR8knVFZxPhnRWkibtmGPioz89/zwe31Q7NUIIlyzCHGGD977ZBYZDyNzZ+byWqOrhh/B76S3EqLUJmM1ic8g0jPw+sthjF6+Dr/cNZr2wnmVdOytOsx6MsuyEcoNQfhvTcyV9dSPyTvkVbURG6NG+ExhedX1v1fhGQEOaOaJdUlxxui4E957KuzZ/rzD6RhJ2wAVOEzK15Cfchgbfh5SXIxnEafLlImK9gqo75pQbTSLYl4jdrTU1ML+WIfWk6Xi9xGE5YXKVMTN0kFBy6ppgfmcmZRTDdNdIKs8N3oGIKi35AFXHHCgAJoFGkkKZGkKEL5xHaNpedC8ISUngxUsuy7LGzocIK7e6Ml6mIdcgnCY2VgO+8vUJWSsJnHHEFT8ynapFftmrotiXicvgnuzDtYBC/QRa4iR9MLT6G8rhfrbUdj77Bj9Vo3Stn5YiheO8MosLUhoDWRrsW2R79uUW0iAPx1GuFCLzWt14/66TFR/bEXdzhCc7fUwtNvBbTfh3LE8Ml8yVhMmMsBgyEjuKhOD8YLDDILBkMEMgsGQwQyCwZDBDILBkMEMgsGQwQyCwZDBDILBkMEMgsGQwQyCwZDBDILBkJE8g/jahpJn/qr1GUi/JF32b2WqFJFf0S57xCLsFev1f3BEVEIiv+Cdf/7jIzkGMU0a8t97oyRgUo3iNV2UwFh1YZaQnlUoS6PHVvb7UUbsJMEgwnCfa4FD+C/P40TawN/wlnQeA8q3SlFXWzd3vCcZxHuyNHrkxl0rxo+QhA2CG2pE/f/kwdJVEb/cy2Iuy7QfzlPVyM8hbk9OPuov+EQ1jTgI3qabl2QatG12uJfxCrhrTcjVZKP+in/uuk+DcPc1oWSv6I5RATLziOzzWf1VN4IeG5qKc4V82WTWMg3J8yVAxG18IGsfTS5KGm1R9xStCzvHUukMkcQMgnOi648cStvroE2mON5TH2yVJei4NoPdRgusnXVQ3zai8cLKnTKOdID9R8zw/fQQ2nokDdpxMwwHSafipEzzCJNOV982BlXNOZz+QA1hX17YC9uh/TBcDkFH69RjQUNOCM7mEpSTOCWqs98yofaEG6rKTljPtKJU7YejvRzm2882ieV3F0bww368Go5QHn5/2opOow6K270wHHNgiVtixEj8BkE7rbEDXFUncXWSK20RunEevY/UqOj+BK3FOmhz9Ggg7/O+X+Ge4++GYW53YWOZFf2nK1CwUwtdUQOsn1pQChe6+t0LRu3wV72oMtqBynP4pDZLNAYCN2RG7/8dgOVTKxqKSJ126qA3WjHSXYqpC2YMylX5HqlQcUHKJ9Tdgoq0MBy3F4o1xweHmWwTPjkp3lMBMbzuYzrgrgtuJoOZEHEaRBjenhb0vdYKS2WydwGTsu9QCcoS6OWGtk6FfR+WSiexEfKMYZTu/35PO9uxBZSkM1eqEL5yE265RfidaDTaENhPDMg4Zwy0A7pvECdj608wQ/Vib88dEyEFcRXnqfJp8qCVhy7rMqCm8dF9P3Gqlia9yBJzLJWXE31P6a8JUmjwsykiIeIyiDBxOWoHVDh+TA9V0vcthxCgD3VLBjLEhFkUGyUx5RgJT1NVi23IWOSPNr5KO9AUAjIpGPvJDrimaczhxmTU1BGA30NebpO44IgBBvnRbAcV0HFzMlU+0lNTLlX2svTKSCpxGEQQ1y87SGdzoaNIDC6Fo5B0JvKpvYaep0jBWvETUbYyRSj3dmLoShOyHtnQ0b+ITlSlTRjBFzvGiXvFePGJwyCU0H5kJUHlvIP4s9R5yjtKzw9DKxcYWxFKbKQj+r0pMn5HE+YeCaNxrCjSqPlMYGoRNyLwmAboaqhk+lH6DwugeuMAGmrU8Pd0wfFI+oDUSUUlMT2Tz/W7lsQJIDBPS26Kc0vvGIsRh0EooNqqJUHlvGO7WpBQUVEZmJ1ZUEU57StBgaydeiju2eH0yPyWpxyuDwxKJ7Gh1OxGHjEh+5/nBc8hF5wXOCiKshaRqiHXr2xChcoL0xknOEE8jUp0khlgfp0IYY8ZRTn5MI0vVDFcTcTBwItH8mB/2o3Ra9H1Z0QTZ1AdO7EvJc6hzDmM4zkB2I9WoeXCMAleh2EzlqPj1gof5isFaGjTIXDJgPJGO4ZJbOAaEpdcHdDheE3e4i5YmhaHjQVQjHeha0QMg1WFDajYxMFemw9DH60TMapzLag6akdAU4eKnYk7c/G01VIoSWBfkMaht60J9pGIkFwT/G8KqlaMJUi5QcTFOhX0pz+DtTIDvgstJHjtwvW0Q4JbtlJURRZ81tOAzL9fRDsJguv/eB0ze5tg+/TZgmrKvb9HWw7gOnUWozTwTstCw4Wr6KzUInCZ1qkeXUN+ZFRa8dnpVCwuJMgreWj7pBWlr0ygt5nct2UUGz604XTlGpX3XCMwoTIGQ8banCEYjFWCGQSDIYMZBIMhgxkEgyGDGQSDIYMZBIMhgxkEgyGDGQSDIYMZBIMhgxkEgyGDGQSDISMBgwhi+Khsg5D8iEUcbE0iqWYYnc/c6ikgE01bS0SrakRUQJjGRqwkYBBTmLwFqHJKo4XBmDgY4wUmfoPg/MLutbyypmhhMCYOxniBScgg3NBB/Zp0nghLuR8L0sPwD5lgkATANHtLYDjlhG/+ZrXHbtgaS5AruHBUxMuM4QfyzUWShumnbgw3UwGzbOQfcSy9PTSJomkLieip+oV7qy7MFu6NiqDZPDLHLeY2YiRC3AbBfUPmhzQ11v/NhnrhIZJOVWOC8+vUbaUMDjWipN0N5d4GWKjomFGHmWsdKDfOCXSF79pQXmzAxWkdGs5YYT3TAN20Ey0flMP8VXQ3dp+tx/n1h3G6pw2HD2oXVx5MRDRN6KyxiQf7LzSh+vIT5NWTa5wkdVaMobe2EQ75FlBGyonTIMhI7XOTkdOOrk/IQzxBH2IdtNOD6CirXtDxkkMQYzdcAHHRTLV66HaKomPnOvVQfOuBV7AIDoNneuEvtGCouwH6HK0oFNYzAkvxFOyWwShlu/CmOpiaS0lZBSjdu/hOsqSJpi0DF9bB1NeJinxS5/wKdJqPk/l3nt4TI+XEaRABhILpUOa0oj/S8ehDvNiPhq1+2Nvs8Amb85OJEqpfKIBBK3pv+RGUbE5B6jB+zYQCGrZwbty8C2x7ZQaTHrmg2ARCCtLh5yvbabKgfubWzwRF0yQRZ0uRTNpjKd4hxpYmvae8qhZmLNej+dojjFQSp0GoUHB6BDfPzNtLvE6NfQd1pGN+jomkT/UKaMs7of/5JGxHS5CfTVw0MluYh9zwR7y0xzSuIa5QX9OckJh0tFwS5MQw9a2QM0aSJ5q2LC+nXNqMEQPxB9WURWaBdBUd13zgZIp4SUOVh9ZL47g5YEVrTR5eD7thbzeg5FckqJT5QhV9i4uJeTzjqNsqZUqUFIumMVaH+AzisRP1JFgsH1gYWPof0DFah82/EM9jh7hB84woyC0euCo3aaGv7YR14CbGB5pI0OzC+REyA7yiEsTS3L4YAt6YSJ5oWnKIvY0Y8RGfQbxKAloy0vquOuGdltIo0244qQTk3n3QxeA2z5K2gbgfHCZnfR/CUw5jw7LANexFb1k+Svqiu6Hi1QxBIE1g027oab36nXDL60ViAfeZImQXmuBa0SJY8kTTEiaWNmIkTNwxxIH6Cqgf2VFb0wHHLVEIq6nSAPt3OrQaC2bdiZjEt97Q4cAmYPRkPYkJSOB7ywmzsRz2l3XCiC+g2IzdORvgP1cLwymHIDrmHnGgw9gIZ5oOdb+iOaV6cXYYigywUYEuUlZvcxXqLwWgra2AboV+TkKiaStYdl2WWNqIkTBxxxCKtxpgu9SKA2ljMB8lgevJiwhsEf/vhWcJgC3KukxUf2xF3c4QnO31MLTbwW034dyxvLnRn47WH9lgO0GCdo8VLTRYbrbC+9Ma4jpZUPCqlIvUq/9KJyq2B3CxmeQ52gWnPwM1PZ/BUhRHGJxE0bSEiKmNGInyEhMqYzDmSGyVicH4gcEMgsGQwQyCwZDBDILBkMEMgsGQwQyCwZDBDILBkMEMgsGYBfh/hJwMW7QboLAAAAAASUVORK5CYII=;" parent="1" vertex="1">
          <mxGeometry x="1340" y="205.5" width="103.4" height="67" as="geometry" />
        </mxCell>
        <mxCell id="7s5OwbQyg9fR4EaiZGAf-21" value="" style="endArrow=classic;html=1;rounded=0;" parent="1" edge="1">
          <mxGeometry relative="1" as="geometry">
            <mxPoint x="825" y="234" as="sourcePoint" />
            <mxPoint x="825" y="350" as="targetPoint" />
          </mxGeometry>
        </mxCell>
        <mxCell id="7s5OwbQyg9fR4EaiZGAf-22" value="press &#39;sign in&#39;" style="edgeLabel;resizable=0;html=1;align=center;verticalAlign=middle;" parent="7s5OwbQyg9fR4EaiZGAf-21" connectable="0" vertex="1">
          <mxGeometry relative="1" as="geometry" />
        </mxCell>
        <mxCell id="7s5OwbQyg9fR4EaiZGAf-23" value="" style="shape=cylinder3;whiteSpace=wrap;html=1;boundedLbl=1;backgroundOutline=1;size=15;" parent="1" vertex="1">
          <mxGeometry x="1092.5" y="300" width="60" height="80" as="geometry" />
        </mxCell>
        <mxCell id="7s5OwbQyg9fR4EaiZGAf-24" value="WSO2&lt;br&gt;(Authorization Server)" style="rounded=0;whiteSpace=wrap;html=1;" parent="1" vertex="1">
          <mxGeometry x="1060" y="390" width="125" height="30" as="geometry" />
        </mxCell>
        <mxCell id="7s5OwbQyg9fR4EaiZGAf-25" value="" style="endArrow=classic;html=1;rounded=0;" parent="1" edge="1">
          <mxGeometry relative="1" as="geometry">
            <mxPoint x="1185" y="330.5799999999999" as="sourcePoint" />
            <mxPoint x="1415" y="330.5799999999999" as="targetPoint" />
          </mxGeometry>
        </mxCell>
        <mxCell id="7s5OwbQyg9fR4EaiZGAf-26" value="use it as IDP" style="edgeLabel;resizable=0;html=1;align=center;verticalAlign=middle;" parent="7s5OwbQyg9fR4EaiZGAf-25" connectable="0" vertex="1">
          <mxGeometry relative="1" as="geometry" />
        </mxCell>
        <mxCell id="7s5OwbQyg9fR4EaiZGAf-27" value="" style="shape=cylinder3;whiteSpace=wrap;html=1;boundedLbl=1;backgroundOutline=1;size=15;" parent="1" vertex="1">
          <mxGeometry x="1458.5" y="300" width="60" height="80" as="geometry" />
        </mxCell>
        <mxCell id="7s5OwbQyg9fR4EaiZGAf-28" value="Google&lt;br&gt;(Identity Provider)" style="rounded=0;whiteSpace=wrap;html=1;" parent="1" vertex="1">
          <mxGeometry x="1432.25" y="390" width="112.5" height="30" as="geometry" />
        </mxCell>
        <mxCell id="7s5OwbQyg9fR4EaiZGAf-29" value="" style="endArrow=classic;html=1;rounded=0;" parent="1" edge="1">
          <mxGeometry relative="1" as="geometry">
            <mxPoint x="1416" y="351" as="sourcePoint" />
            <mxPoint x="1186" y="351" as="targetPoint" />
          </mxGeometry>
        </mxCell>
        <mxCell id="7s5OwbQyg9fR4EaiZGAf-30" value="provides tokens" style="edgeLabel;resizable=0;html=1;align=center;verticalAlign=middle;" parent="7s5OwbQyg9fR4EaiZGAf-29" connectable="0" vertex="1">
          <mxGeometry relative="1" as="geometry" />
        </mxCell>
        <mxCell id="7s5OwbQyg9fR4EaiZGAf-31" value="&lt;font style=&quot;font-size: 9px&quot;&gt;https://localhost:9443/oauth2/authorize?&lt;br style=&quot;font-size: 9px&quot;&gt;client_id=6TRvndlC1xNzJ_Q_SSOIAS47vhsa&amp;amp;&lt;br style=&quot;font-size: 9px&quot;&gt;redirect_uri=http://localhost:8080/redirect.jsp&amp;amp;&lt;br style=&quot;font-size: 9px&quot;&gt;response_type=code&amp;amp;&lt;br style=&quot;font-size: 9px&quot;&gt;scope=openid&amp;amp;&lt;br style=&quot;font-size: 9px&quot;&gt;nonce=2bozv48CzZzHcOWo6TAv&amp;amp;&lt;br style=&quot;font-size: 9px&quot;&gt;state=secret%3DUtwTWLNaPA%26returnUrl%3Dhttp%3A%2F%2Flocalhost%3A8080%2Fmain.jsp&lt;/font&gt;" style="text;whiteSpace=wrap;html=1;fontSize=6;" parent="1" vertex="1">
          <mxGeometry x="-440" y="390" width="450" height="100" as="geometry" />
        </mxCell>
        <mxCell id="7s5OwbQyg9fR4EaiZGAf-32" value="" style="endArrow=classic;html=1;rounded=0;" parent="1" edge="1">
          <mxGeometry relative="1" as="geometry">
            <mxPoint x="750" y="369.40999999999997" as="sourcePoint" />
            <mxPoint x="580" y="369.83" as="targetPoint" />
          </mxGeometry>
        </mxCell>
        <mxCell id="7s5OwbQyg9fR4EaiZGAf-35" value="Map &lt;String, String&gt; &#39;settings&#39;" style="swimlane;fontSize=10;" parent="1" vertex="1">
          <mxGeometry x="380" y="355" width="190" height="55" as="geometry" />
        </mxCell>
        <mxCell id="7s5OwbQyg9fR4EaiZGAf-36" value="combine values (checkUri, mainUrl, ...)" style="text;html=1;align=center;verticalAlign=middle;resizable=0;points=[];autosize=1;strokeColor=none;fillColor=none;fontSize=10;" parent="7s5OwbQyg9fR4EaiZGAf-35" vertex="1">
          <mxGeometry y="30" width="190" height="20" as="geometry" />
        </mxCell>
        <mxCell id="7s5OwbQyg9fR4EaiZGAf-37" value="settings.ini" style="rounded=1;whiteSpace=wrap;html=1;" parent="1" vertex="1">
          <mxGeometry x="100" y="355" width="120" height="30" as="geometry" />
        </mxCell>
        <mxCell id="7s5OwbQyg9fR4EaiZGAf-40" value="new SSOAuth (req, res, settings)" style="swimlane;fontSize=10;" parent="1" vertex="1">
          <mxGeometry x="380" y="420" width="190" height="55" as="geometry" />
        </mxCell>
        <mxCell id="7s5OwbQyg9fR4EaiZGAf-41" value="ssoAuth.ssoLogin();" style="text;html=1;align=center;verticalAlign=middle;resizable=0;points=[];autosize=1;strokeColor=none;fillColor=none;fontSize=10;" parent="7s5OwbQyg9fR4EaiZGAf-40" vertex="1">
          <mxGeometry x="45" y="30" width="100" height="20" as="geometry" />
        </mxCell>
        <mxCell id="7s5OwbQyg9fR4EaiZGAf-43" value="" style="endArrow=classic;startArrow=classic;html=1;rounded=0;fontSize=10;entryX=0;entryY=0.25;entryDx=0;entryDy=0;" parent="1" target="7s5OwbQyg9fR4EaiZGAf-35" edge="1">
          <mxGeometry width="50" height="50" relative="1" as="geometry">
            <mxPoint x="230" y="369" as="sourcePoint" />
            <mxPoint x="330" y="360" as="targetPoint" />
          </mxGeometry>
        </mxCell>
        <mxCell id="7s5OwbQyg9fR4EaiZGAf-44" value="SSOAuth.java" style="rounded=1;whiteSpace=wrap;html=1;" parent="1" vertex="1">
          <mxGeometry x="100" y="420" width="120" height="30" as="geometry" />
        </mxCell>
        <mxCell id="7s5OwbQyg9fR4EaiZGAf-45" value="" style="endArrow=classic;html=1;rounded=0;" parent="1" edge="1">
          <mxGeometry relative="1" as="geometry">
            <mxPoint x="380" y="430" as="sourcePoint" />
            <mxPoint x="229.9999999999999" y="430.41999999999996" as="targetPoint" />
          </mxGeometry>
        </mxCell>
        <mxCell id="7s5OwbQyg9fR4EaiZGAf-46" value="" style="endArrow=classic;html=1;rounded=0;" parent="1" edge="1">
          <mxGeometry relative="1" as="geometry">
            <mxPoint x="160" y="450" as="sourcePoint" />
            <mxPoint x="160" y="530" as="targetPoint" />
          </mxGeometry>
        </mxCell>
        <mxCell id="7s5OwbQyg9fR4EaiZGAf-53" value="ssoLogin();" style="swimlane;fontSize=10;" parent="1" vertex="1">
          <mxGeometry x="70" y="539.5" width="190" height="70.5" as="geometry" />
        </mxCell>
        <mxCell id="7s5OwbQyg9fR4EaiZGAf-54" value="setstate();, String authURL&lt;br&gt;response.sendRedirect(authURL)" style="text;html=1;align=center;verticalAlign=middle;resizable=0;points=[];autosize=1;strokeColor=none;fillColor=none;fontSize=10;" parent="7s5OwbQyg9fR4EaiZGAf-53" vertex="1">
          <mxGeometry x="15" y="30.5" width="160" height="30" as="geometry" />
        </mxCell>
        <mxCell id="7s5OwbQyg9fR4EaiZGAf-55" value="setState();" style="swimlane;fontSize=10;startSize=23;" parent="1" vertex="1">
          <mxGeometry x="-250" y="536.5" width="190" height="70.5" as="geometry" />
        </mxCell>
        <mxCell id="7s5OwbQyg9fR4EaiZGAf-56" value="String text, String returnUrl, String state&lt;br&gt;new Cookie (&quot;state&quot;, state)&lt;br&gt;response.addCookie(cookie)" style="text;html=1;align=center;verticalAlign=middle;resizable=0;points=[];autosize=1;strokeColor=none;fillColor=none;fontSize=10;" parent="7s5OwbQyg9fR4EaiZGAf-55" vertex="1">
          <mxGeometry y="25.5" width="190" height="40" as="geometry" />
        </mxCell>
        <mxCell id="7s5OwbQyg9fR4EaiZGAf-59" value="" style="endArrow=classic;html=1;rounded=0;fontSize=10;" parent="1" edge="1">
          <mxGeometry relative="1" as="geometry">
            <mxPoint x="50" y="576.29" as="sourcePoint" />
            <mxPoint x="-50" y="576.29" as="targetPoint" />
          </mxGeometry>
        </mxCell>
        <mxCell id="7s5OwbQyg9fR4EaiZGAf-60" value="activate" style="edgeLabel;resizable=0;html=1;align=center;verticalAlign=middle;fontSize=10;" parent="7s5OwbQyg9fR4EaiZGAf-59" connectable="0" vertex="1">
          <mxGeometry relative="1" as="geometry" />
        </mxCell>
        <mxCell id="7s5OwbQyg9fR4EaiZGAf-61" value="getValue();" style="swimlane;fontSize=10;startSize=23;" parent="1" vertex="1">
          <mxGeometry x="-780" y="516.25" width="190" height="70.5" as="geometry" />
        </mxCell>
        <mxCell id="7s5OwbQyg9fR4EaiZGAf-62" value="StringBuilder text = new StringBuilder();" style="text;html=1;align=center;verticalAlign=middle;resizable=0;points=[];autosize=1;strokeColor=none;fillColor=none;fontSize=10;" parent="7s5OwbQyg9fR4EaiZGAf-61" vertex="1">
          <mxGeometry y="35.5" width="190" height="20" as="geometry" />
        </mxCell>
        <mxCell id="7s5OwbQyg9fR4EaiZGAf-65" value="" style="endArrow=classic;html=1;rounded=0;fontSize=10;" parent="1" edge="1">
          <mxGeometry relative="1" as="geometry">
            <mxPoint x="-580" y="569.7499999999999" as="sourcePoint" />
            <mxPoint x="-480" y="569.7499999999999" as="targetPoint" />
          </mxGeometry>
        </mxCell>
        <mxCell id="7s5OwbQyg9fR4EaiZGAf-66" value="return &lt;br&gt;text.toString();" style="edgeLabel;resizable=0;html=1;align=center;verticalAlign=middle;fontSize=10;" parent="7s5OwbQyg9fR4EaiZGAf-65" connectable="0" vertex="1">
          <mxGeometry relative="1" as="geometry" />
        </mxCell>
        <mxCell id="gH-__NXqZxBPmU6lRZSi-1" value="" style="endArrow=none;dashed=1;html=1;rounded=0;fontSize=9;entryX=-0.007;entryY=0.201;entryDx=0;entryDy=0;entryPerimeter=0;" edge="1" parent="1" target="7s5OwbQyg9fR4EaiZGAf-56">
          <mxGeometry width="50" height="50" relative="1" as="geometry">
            <mxPoint x="-340" y="570" as="sourcePoint" />
            <mxPoint x="-260" y="570" as="targetPoint" />
          </mxGeometry>
        </mxCell>
        <mxCell id="gH-__NXqZxBPmU6lRZSi-2" value="String text" style="ellipse;whiteSpace=wrap;html=1;fontSize=9;" vertex="1" parent="1">
          <mxGeometry x="-473" y="556.75" width="120" height="30" as="geometry" />
        </mxCell>
        <mxCell id="gH-__NXqZxBPmU6lRZSi-3" value="" style="endArrow=none;dashed=1;html=1;rounded=0;fontSize=9;" edge="1" parent="1">
          <mxGeometry width="50" height="50" relative="1" as="geometry">
            <mxPoint x="-340" y="630.2499999999999" as="sourcePoint" />
            <mxPoint x="-260" y="570" as="targetPoint" />
            <Array as="points">
              <mxPoint x="-260" y="630" />
            </Array>
          </mxGeometry>
        </mxCell>
        <mxCell id="gH-__NXqZxBPmU6lRZSi-4" value="String returnUrl" style="ellipse;whiteSpace=wrap;html=1;fontSize=9;" vertex="1" parent="1">
          <mxGeometry x="-473" y="617" width="120" height="30" as="geometry" />
        </mxCell>
        <mxCell id="gH-__NXqZxBPmU6lRZSi-5" value="" style="endArrow=none;dashed=1;html=1;rounded=0;fontSize=9;" edge="1" parent="1">
          <mxGeometry width="50" height="50" relative="1" as="geometry">
            <mxPoint x="-340" y="693.2499999999999" as="sourcePoint" />
            <mxPoint x="-260" y="630" as="targetPoint" />
            <Array as="points">
              <mxPoint x="-260" y="693" />
            </Array>
          </mxGeometry>
        </mxCell>
        <mxCell id="gH-__NXqZxBPmU6lRZSi-6" value="String state" style="ellipse;whiteSpace=wrap;html=1;fontSize=9;" vertex="1" parent="1">
          <mxGeometry x="-473" y="680" width="120" height="30" as="geometry" />
        </mxCell>
        <mxCell id="gH-__NXqZxBPmU6lRZSi-7" value="request.getParameter(&#39;&#39;returnUrl&quot;)" style="rounded=0;whiteSpace=wrap;html=1;fontSize=9;" vertex="1" parent="1">
          <mxGeometry x="-780" y="610.5" width="190" height="43" as="geometry" />
        </mxCell>
        <mxCell id="gH-__NXqZxBPmU6lRZSi-8" value="" style="endArrow=classic;html=1;rounded=0;fontSize=10;" edge="1" parent="1">
          <mxGeometry relative="1" as="geometry">
            <mxPoint x="-580" y="631.6599999999997" as="sourcePoint" />
            <mxPoint x="-480" y="631.6599999999997" as="targetPoint" />
          </mxGeometry>
        </mxCell>
        <mxCell id="gH-__NXqZxBPmU6lRZSi-10" value="URLEcoder.encode(&#39;secret&#39;+&quot;retrnUrl&#39;);" style="rounded=0;whiteSpace=wrap;html=1;fontSize=9;" vertex="1" parent="1">
          <mxGeometry x="-780" y="673.5" width="190" height="43" as="geometry" />
        </mxCell>
        <mxCell id="gH-__NXqZxBPmU6lRZSi-11" value="" style="endArrow=classic;html=1;rounded=0;fontSize=10;" edge="1" parent="1">
          <mxGeometry relative="1" as="geometry">
            <mxPoint x="-580" y="694.6599999999996" as="sourcePoint" />
            <mxPoint x="-480" y="694.6599999999996" as="targetPoint" />
          </mxGeometry>
        </mxCell>
        <mxCell id="gH-__NXqZxBPmU6lRZSi-12" value="&lt;div style=&quot;line-height: 19px&quot;&gt;&lt;div&gt;if (null == returnUrl || returnUrl.isEmpty())&amp;nbsp;&lt;/div&gt;&lt;div&gt;&lt;span&gt;{&lt;/span&gt;&lt;span&gt;returnUrl = mainUrl;&lt;/span&gt;&lt;span&gt;}&lt;/span&gt;&lt;/div&gt;&lt;/div&gt;" style="rounded=0;whiteSpace=wrap;html=1;fontSize=9;" vertex="1" parent="1">
          <mxGeometry x="-1090" y="610" width="190" height="43" as="geometry" />
        </mxCell>
        <mxCell id="gH-__NXqZxBPmU6lRZSi-13" value="" style="endArrow=classic;html=1;rounded=0;fontSize=10;" edge="1" parent="1">
          <mxGeometry relative="1" as="geometry">
            <mxPoint x="-890" y="639.9999999999997" as="sourcePoint" />
            <mxPoint x="-790" y="639.9999999999997" as="targetPoint" />
          </mxGeometry>
        </mxCell>
        <mxCell id="gH-__NXqZxBPmU6lRZSi-14" value="" style="endArrow=classic;html=1;rounded=0;fontSize=10;" edge="1" parent="1">
          <mxGeometry relative="1" as="geometry">
            <mxPoint x="-790" y="619.9999999999998" as="sourcePoint" />
            <mxPoint x="-890" y="620" as="targetPoint" />
          </mxGeometry>
        </mxCell>
        <mxCell id="gH-__NXqZxBPmU6lRZSi-15" value="" style="endArrow=classic;html=1;rounded=0;startArrow=none;" edge="1" parent="1" source="gH-__NXqZxBPmU6lRZSi-17">
          <mxGeometry relative="1" as="geometry">
            <mxPoint x="159.31" y="616.9999999999999" as="sourcePoint" />
            <mxPoint x="760" y="577" as="targetPoint" />
          </mxGeometry>
        </mxCell>
        <mxCell id="gH-__NXqZxBPmU6lRZSi-17" value="parameters" style="text;html=1;strokeColor=none;fillColor=none;align=center;verticalAlign=middle;whiteSpace=wrap;rounded=0;labelBackgroundColor=none;fontFamily=Helvetica;fontSize=10;fontColor=#000000;" vertex="1" parent="1">
          <mxGeometry x="500" y="567.75" width="60" height="20" as="geometry" />
        </mxCell>
        <mxCell id="gH-__NXqZxBPmU6lRZSi-18" value="" style="endArrow=none;html=1;rounded=0;" edge="1" parent="1" target="gH-__NXqZxBPmU6lRZSi-17">
          <mxGeometry relative="1" as="geometry">
            <mxPoint x="270" y="580" as="sourcePoint" />
            <mxPoint x="159" y="779.9999999999998" as="targetPoint" />
            <Array as="points" />
          </mxGeometry>
        </mxCell>
        <mxCell id="gH-__NXqZxBPmU6lRZSi-20" value="" style="endArrow=classic;html=1;rounded=0;" edge="1" parent="1">
          <mxGeometry relative="1" as="geometry">
            <mxPoint x="795.79" y="597.4999999999999" as="sourcePoint" />
            <mxPoint x="710" y="920" as="targetPoint" />
            <Array as="points">
              <mxPoint x="796" y="920" />
            </Array>
          </mxGeometry>
        </mxCell>
        <mxCell id="gH-__NXqZxBPmU6lRZSi-21" value="read params value" style="edgeLabel;resizable=0;html=1;align=center;verticalAlign=middle;" connectable="0" vertex="1" parent="gH-__NXqZxBPmU6lRZSi-20">
          <mxGeometry relative="1" as="geometry" />
        </mxCell>
        <mxCell id="gH-__NXqZxBPmU6lRZSi-24" value="String ParameterName" style="swimlane;fontSize=10;" vertex="1" parent="1">
          <mxGeometry x="370" y="800" width="320" height="230" as="geometry" />
        </mxCell>
        <mxCell id="gH-__NXqZxBPmU6lRZSi-25" value="&lt;div style=&quot;text-align: left&quot;&gt;if (parameterName.equals(&quot;code&quot;)) {&lt;br&gt;&lt;/div&gt;&lt;div style=&quot;text-align: left&quot;&gt;&amp;nbsp; &amp;nbsp; &amp;nbsp;code = request.getParameter(parameterName);&lt;/div&gt;&lt;div style=&quot;text-align: left&quot;&gt;}&lt;/div&gt;&lt;div style=&quot;text-align: left&quot;&gt;&amp;nbsp;if (parameterName.equals(&quot;state&quot;)) {&lt;/div&gt;&lt;div style=&quot;text-align: left&quot;&gt;&amp;nbsp; &amp;nbsp; &amp;nbsp;state = request.getParameter(parameterName);&lt;/div&gt;&lt;div style=&quot;text-align: left&quot;&gt;}&lt;/div&gt;&lt;div style=&quot;text-align: left&quot;&gt;&amp;nbsp;if (parameterName.equals(&quot;error&quot;)) {&lt;/div&gt;&lt;div style=&quot;text-align: left&quot;&gt;&amp;nbsp; &amp;nbsp; &amp;nbsp;error = request.getParameter(parameterName);&lt;/div&gt;&lt;div style=&quot;text-align: left&quot;&gt;}&lt;/div&gt;&lt;div style=&quot;text-align: left&quot;&gt;&amp;nbsp;if (parameterName.equals(&quot;error_description&quot;)) {&lt;/div&gt;&lt;div style=&quot;text-align: left&quot;&gt;&amp;nbsp; &amp;nbsp; &amp;nbsp;errorDescription = request.getParameter(parameterName);&lt;/div&gt;&lt;div style=&quot;text-align: left&quot;&gt;}&lt;/div&gt;&lt;div style=&quot;text-align: left&quot;&gt;&amp;nbsp;if (parameterName.equals(&quot;session_state&quot;)) {&lt;/div&gt;&lt;div style=&quot;text-align: left&quot;&gt;&amp;nbsp; &amp;nbsp; &amp;nbsp;session_state = request.getParameter(parameterName);&lt;/div&gt;&lt;div style=&quot;text-align: left&quot;&gt;}&lt;/div&gt;" style="text;html=1;align=center;verticalAlign=middle;resizable=0;points=[];autosize=1;strokeColor=none;fillColor=none;fontSize=10;" vertex="1" parent="gH-__NXqZxBPmU6lRZSi-24">
          <mxGeometry x="15" y="30" width="290" height="190" as="geometry" />
        </mxCell>
        <mxCell id="gH-__NXqZxBPmU6lRZSi-26" value="Map &lt;Strig, Object&gt; &#39;params&#39;" style="swimlane;fontSize=10;" vertex="1" parent="1">
          <mxGeometry x="-35" y="800" width="245" height="160" as="geometry" />
        </mxCell>
        <mxCell id="gH-__NXqZxBPmU6lRZSi-27" value="&lt;div style=&quot;text-align: left ; font-size: 9px&quot;&gt;&lt;div style=&quot;line-height: 19px ; font-size: 9px&quot;&gt;&lt;div style=&quot;font-size: 9px&quot;&gt;&lt;font color=&quot;#d4d4d4&quot; style=&quot;font-size: 9px&quot;&gt;&amp;nbsp;&lt;/font&gt;params.put(&quot;grant_type&quot;, &quot;authorization_code&quot;);&lt;/div&gt;&lt;div style=&quot;font-size: 9px&quot;&gt;&amp;nbsp;params.put(&quot;code&quot;, code);&lt;/div&gt;&lt;div style=&quot;font-size: 9px&quot;&gt;&amp;nbsp;params.put(&quot;state&quot;, state);&lt;/div&gt;&lt;div style=&quot;font-size: 9px&quot;&gt;&amp;nbsp;params.put(&quot;client_id&quot;, clientId);&lt;/div&gt;&lt;div style=&quot;font-size: 9px&quot;&gt;&amp;nbsp;params.put(&quot;client_secret&quot;, clientSecret);&lt;/div&gt;&lt;div style=&quot;font-size: 9px&quot;&gt;&amp;nbsp;params.put(&quot;redirect_uri&quot;, redirectUri);&lt;/div&gt;&lt;/div&gt;&lt;/div&gt;" style="text;html=1;align=center;verticalAlign=middle;resizable=0;points=[];autosize=1;strokeColor=none;fillColor=none;fontSize=10;" vertex="1" parent="gH-__NXqZxBPmU6lRZSi-26">
          <mxGeometry x="15" y="30" width="230" height="120" as="geometry" />
        </mxCell>
        <mxCell id="gH-__NXqZxBPmU6lRZSi-28" value="Map &lt;String, String&gt; &#39;settings&#39;" style="swimlane;fontSize=10;" vertex="1" parent="1">
          <mxGeometry x="-34" y="980" width="244" height="220" as="geometry" />
        </mxCell>
        <mxCell id="gH-__NXqZxBPmU6lRZSi-29" value="&lt;div style=&quot;text-align: left; font-size: 8px;&quot;&gt;&lt;div style=&quot;font-size: 8px; line-height: 19px;&quot;&gt;&lt;div style=&quot;font-size: 8px;&quot;&gt;&amp;nbsp; &amp;nbsp; &amp;nbsp; &amp;nbsp; settings.put(&quot;checkUri&quot;, checkUri);&lt;/div&gt;&lt;div style=&quot;font-size: 8px;&quot;&gt;&amp;nbsp; &amp;nbsp; &amp;nbsp; &amp;nbsp; settings.put(&quot;authorizeUri&quot;, authorizeUri);&lt;/div&gt;&lt;div style=&quot;font-size: 8px;&quot;&gt;&amp;nbsp; &amp;nbsp; &amp;nbsp; &amp;nbsp; settings.put(&quot;tokenTargetUri&quot;, tokenTargetUri);&lt;/div&gt;&lt;div style=&quot;font-size: 8px;&quot;&gt;&amp;nbsp; &amp;nbsp; &amp;nbsp; &amp;nbsp; settings.put(&quot;jwksUri&quot;, jwksUri);&lt;/div&gt;&lt;div style=&quot;font-size: 8px;&quot;&gt;&amp;nbsp; &amp;nbsp; &amp;nbsp; &amp;nbsp; settings.put(&quot;clientId&quot;, clientId);&lt;/div&gt;&lt;div style=&quot;font-size: 8px;&quot;&gt;&amp;nbsp; &amp;nbsp; &amp;nbsp; &amp;nbsp; settings.put(&quot;clientSecret&quot;, clientSecret);&lt;/div&gt;&lt;div style=&quot;font-size: 8px;&quot;&gt;&amp;nbsp; &amp;nbsp; &amp;nbsp; &amp;nbsp; settings.put(&quot;redirectUri&quot;, redirectUri);&lt;/div&gt;&lt;div style=&quot;font-size: 8px;&quot;&gt;&amp;nbsp; &amp;nbsp; &amp;nbsp; &amp;nbsp; settings.put(&quot;mainUrl&quot;, mainUrl);&lt;/div&gt;&lt;div style=&quot;font-size: 8px;&quot;&gt;&amp;nbsp; &amp;nbsp; &amp;nbsp; &amp;nbsp; settings.put(&quot;DEBUG&quot;, &quot;off&quot;);&lt;/div&gt;&lt;/div&gt;&lt;/div&gt;" style="text;html=1;align=center;verticalAlign=middle;resizable=0;points=[];autosize=1;strokeColor=none;fillColor=none;fontSize=8;labelBackgroundColor=none;fontColor=#000000;fontFamily=Helvetica;" vertex="1" parent="gH-__NXqZxBPmU6lRZSi-28">
          <mxGeometry x="-1" y="30" width="240" height="180" as="geometry" />
        </mxCell>
        <mxCell id="gH-__NXqZxBPmU6lRZSi-31" value="" style="endArrow=none;dashed=1;html=1;dashPattern=1 3;strokeWidth=2;rounded=0;fontFamily=Helvetica;fontSize=8;fontColor=#000000;" edge="1" parent="1">
          <mxGeometry width="50" height="50" relative="1" as="geometry">
            <mxPoint x="233" y="920" as="sourcePoint" />
            <mxPoint x="363" y="920" as="targetPoint" />
          </mxGeometry>
        </mxCell>
      </root>
    </mxGraphModel>
  </diagram>
</mxfile>
